# xmcd CD database file
#
# Track frame offsets:
#	150
#	27718
#	46742
#	86573
#	109545
#	131333
#	151598
#
# Disc length: 2236 seconds
#
# Revision: 0
# Processed by: cddbd v1.5.2PL0 Copyright (c) Steve Scherf et al.
# Submitted via: CDex 1.70beta3
#
DISCID=4808ba07
DTITLE=関根 敏行 - Strode Road
DYEAR=1978
DGENRE=Jazz
TTITLE0=Strode Road
TTITLE1=Up Jumped Spring
TTITLE2=Love For Sale
TTITLE3=Will You Still Be Mine
TTITLE4=Detour Ahead
TTITLE5=I Could Write A Book
TTITLE6=Dexterity
EXTD=YEAR: 1978
EXTT0=
EXTT1=
EXTT2=
EXTT3=
EXTT4=
EXTT5=
EXTT6=
PLAYORDER=
